<?xml version="1.0" encoding="utf-8"?>
<!-- Generator: Adobe Illustrator 18.0.0, SVG Export Plug-In . SVG Version: 6.00 Build 0)  -->
<!DOCTYPE svg PUBLIC "-//W3C//DTD SVG 1.1//EN" "http://www.w3.org/Graphics/SVG/1.1/DTD/svg11.dtd">
<svg version="1.1" id="Capa_1" xmlns="http://www.w3.org/2000/svg" xmlns:xlink="http://www.w3.org/1999/xlink" x="0px" y="0px"
	 viewBox="0 0 2834.6 1482.3" enable-background="new 0 0 2834.6 1482.3" xml:space="preserve">
<g>
	<path fill="#2B9A83" d="M2108.3,1232.1c-16.3-4.7-32.5-9.5-48.2-15.9c-27.6-11.3-53.6-25.5-77.5-43.3c-12.9-9.6-25-20-36-31.8
		c-18.2-19.5-33.9-40.8-46.4-64.5c-15.6-29.5-25.7-60.8-31.8-93.4c-2.6-14.1-4.2-28.4-6.3-42.6c-0.6-3.9,1.9-3.7,4.6-3.7
		c54,0,108,0,162,0.1c4.7,0,9.3,0.1,14-0.1c2.6-0.1,3.8,0.4,3.9,3.5c0.9,30.3,9.5,58.2,26.3,83.6c19.5,29.4,45.9,49.6,79,61
		c12.6,4.4,25.6,7,39.1,8.1c29.3,2.4,56.9-3.1,82.9-16.2c12.8-6.4,24.6-14.5,35.3-24.3c12.8-11.7,23.5-25.2,31.6-40.3
		c9.1-16.9,15.7-34.8,17.5-54.3c0.7-7.9,2.4-15.8,1.9-23.7c-1.4-21-4.9-41.4-13.7-60.8c-7.5-16.4-16.9-31.2-29.5-44.2
		c-23.4-24.1-51-40.1-84.7-45.2c-14.7-2.2-29.3-4.9-44-6.5c-17.9-2-35.6-4.9-53.1-9.3c-13.3-3.3-26.3-7.2-39.3-11.6
		c-21.2-7.1-41.5-16.1-61.2-26.4c-16-8.3-30.8-18.4-45.1-29.3c-11.7-8.9-22.6-18.7-32.5-29.6c-26.2-28.9-43.8-62.3-52-100.6
		c-4.7-22-5.7-44.1-4.6-66.3c1.1-21.6,6-42.6,13.4-63.1c4.7-13.1,9.5-26,15.9-38.3c11-21.3,24.1-41.2,40-59.3
		c17.5-19.8,36.8-37.4,59-51.8c29.2-18.9,60.6-32.5,94.3-41.3c15.7-4.1,31.4-7.2,47.4-9.6c6.6-1,13.4-1.4,20.1-2c12.7,0,25.3,0,38,0
		c9.7,1.6,19.6,2.2,29.4,3.7c19.6,3,38.6,8.2,57.1,15.3c18.4,7,35.7,16,52.6,26.1c16.4,9.8,31.5,21.5,45.7,34.1
		c10.9,9.7,21.1,20.1,30.6,31.2c13.1,15.1,24.7,31.3,34.4,48.8c16.5,29.8,24.2,62.5,29.3,95.8c1.4,9.3,2.5,18.6,3.7,28
		c-0.5,6.5-4.5,7.9-10.1,7c-1.8-0.3-3.6,0-5.5,0c-35.2,0.1-70.4,0.1-105.6,0.2c-4.5,0-9-0.2-13.5,0.1c-3.6,0.2-4.4-1.1-4.4-4.5
		c0.2-18.8,0-37.6,0.2-56.5c0-4.1-1-5.3-5.2-5.2c-30.5,0.2-60.9,0-91.4,0.2c-4.8,0-5.6-1.5-5.6-5.8c0.2-31.8,0.1-63.6,0.1-95.4
		c0-2.9,0.1-5-4-4.9c-41.6,0.1-83.3,0.1-124.9,0.1c-1.6,0-3.5-0.3-4,1.9c-1.5,1.3-0.9,3.1-0.9,4.7c0,29.5,0,59.1,0,88.6
		c0,1.6-0.6,3.4,0.9,4.7c1,4.3-0.6,6-5,5c-1.3-1.5-3.1-0.9-4.7-0.9c-29.2,0-58.4,0-87.6,0c-1.6,0-3.4-0.6-4.7,1
		c-1.7,1.9-0.9,4.1-0.9,6.2c0,42.5,0,85,0,127.5c1.4,2.3,3.6,1.3,5.4,1.3c29.3,0.1,58.6,0.1,87.9-0.1c5,0,6.6,1.3,6.6,6.4
		c-0.2,29.1-0.1,58.3-0.1,87.4c0,1.7-0.7,3.7,1,5.2c1.6,1.4,3.5,0.9,5.2,0.9c41.1,0,82.2,0,123.4,0.1c4.1,0,5.4-0.9,5.3-5.2
		c-0.2-30.1,0-60.3-0.2-90.4c0-4.6,1.4-4.9,5.2-3.6c12.7,4.4,25.3,9.4,37.7,14.6c22.4,9.5,43.8,20.8,64.3,33.8
		c12,7.5,23.4,15.9,35.1,23.8c1.3,1.8,2.6,3.7,5,4l0,0c0.8,1.2,1.5,2.5,3.1,2.7c1,0.8,2,1.5,2.9,2.3c3,3.8,6.6,6.8,11,9
		c0.3,0.3,0.7,0.7,1,1c-0.1,1.4,0.6,2,2,2l0,0c0.3,0.3,0.7,0.6,1,1l0,0c0.3,0.3,0.7,0.7,1,1l0,0c0.3,0.3,0.7,0.6,1,1c1,1,2,2,3,3
		c1.5,2.3,3.1,4.4,5.9,5.1c0.7,0.6,1.4,1.3,2,1.9c3.9,6.6,10.2,11.1,15,17l0,0c0.7,1.5,1.8,2.7,3.4,3.4l0.1,0.1
		c0.4,1.4,0.7,2.9,2.4,3.4c0.3,0.3,0.6,0.7,1,1c4,5,8,10,12,15c0,0,0,0,0,0c0,1.5,0.6,2.5,2,3c0.3,0.3,0.7,0.6,1,1
		c0,1.5,0.5,2.5,2,3l0,0c0.3,0.3,0.6,0.7,1,1c0,0.3,0.1,0.6,0.3,0.9c0.9,1.4,1.8,2.7,2.7,4.1l0,0c0,0.8-0.1,1.7,1,2l0,0
		c0.3,0.3,0.6,0.7,1,1c0,0,0,0,0,0c-0.1,1.5,0.6,2.5,2,3l0,0c2.3,4,4.7,8,7,12c0,0,0,0,0,0c4.3,8.3,8.7,16.7,13,25
		c0.1,0.3,0.1,0.6,0.3,0.9c-0.1,2.5,1.3,4.3,2.7,6.1l0,0c0.4,1.8,0.8,3.6,2,5c0.1,0.6,0.2,1.3,0.2,1.9c-0.2,0.7,0.2,0.9,0.8,1l0,0
		c1.2,3.4,1.4,7.1,4,10l0,0c0.6,3.5,0.9,7,3,10c0.1,0.6,0.2,1.3,0.3,1.9c-0.2,0.6,0.1,0.9,0.7,1c0.1,0.3,0.2,0.6,0.3,0.9
		c0.5,3.5,1.1,6.9,2.7,10.1c0.1,0.6,0.1,1.3,0.2,1.9c1.3,5.4,1.8,10.9,3.8,16.1c0.1,0.6,0.1,1.3,0.2,1.9c1.1,8.7,2,17.4,3.5,26
		c0.7,4-1,8.2,1.3,12c0,14.3,0,28.7,0,43c-1.3,12.7-2.7,25.3-4,38l0,0c-1.6,4.6-2.2,9.3-2.7,14.1c-0.1,0.6-0.2,1.3-0.2,1.9
		c-2.7,8.9-5.3,17.8-8.1,26.7c-2.4,7.6-6.7,14.6-8.6,22.4c-0.1,0.3-0.2,0.6-0.3,0.9c-1.3,1-1.9,2.3-2,4l0,0
		c-0.6,0.1-0.9,0.4-0.8,1.1c-0.1,0.3-0.2,0.6-0.3,0.9c-0.5,0.2-0.9,0.5-0.7,1.1c-0.1,0.3-0.3,0.6-0.3,0.9c-1.5,1.8-2.6,3.7-3,6.1
		l0,0c-4.7,8-9.4,16-14,24l0,0c-4,4.6-7.4,9.5-10,15c0,0,0,0,0,0c-0.3,0.3-0.6,0.7-0.9,1l0,0c-0.6,0-0.9,0.3-1,0.9l0,0
		c-0.6,0.1-0.9,0.3-0.7,1c-3.2,4-6.2,8.1-9.6,12c-11.7,13.5-23.8,26.4-37.6,37.9c-19.4,16.2-40.4,29.9-62.9,41.4
		c-17.7,9-36.1,16.1-55,21.9c-22.9,7.1-46.2,12.2-70,15.1c-14.6,1.8-29.2,3.8-43.9,4c-1.8,0-3.7-0.4-5.4,0.7c-10.7,0-21.3,0-32,0
		c-4.9-1.3-10-1.5-15.1-1.8c-0.6-0.1-1.3-0.2-1.9-0.2c-7-1.2-14.1-2.5-21.1-3.7c-0.6-0.1-1.3-0.2-1.9-0.2c-0.4-1-1.2-1-2.1-0.7
		c-1-0.1-1.9-0.2-2.9-0.2c-2.4-1.5-5.2-2-8-2.1c0,0,0,0,0,0C2113.8,1232.8,2111,1232.6,2108.3,1232.1z"/>
	<path fill="#E3AE3B" d="M2070,936.9c-2.2-73,60.1-131,127.3-133.4c79.4-2.8,136.8,61,139.5,127.8c3.2,79.9-61.9,137.6-129.2,139.7
		C2130,1073.3,2067.3,1008.7,2070,936.9z"/>
	<g>
		<path fill="#182D62" d="M320.4,657.1c13.3,8.1,38.4,16.6,59.3,16.6c25.6,0,37-10.4,37-25.6c0-15.6-9.5-23.7-37.9-33.7
			c-45-15.6-64-40.3-63.5-67.3c0-40.8,33.7-72.5,87.2-72.5c25.6,0,47.9,6.6,61.2,13.7l-11.4,41.2c-10-5.7-28.4-13.3-48.8-13.3
			c-20.9,0-32.2,10-32.2,24.2c0,14.7,10.9,21.8,40.3,32.2c41.7,15.2,61.2,36.5,61.6,70.6c0,41.7-32.7,72.1-93.9,72.1
			c-28,0-53.1-6.6-70.2-16.1L320.4,657.1z"/>
		<path fill="#182D62" d="M553,611.6c1.4,41.7,34.1,59.7,71.1,59.7c27,0,46.5-3.8,64-10.4l8.5,40.3c-19.9,8.1-47.4,14.2-80.6,14.2
			c-74.9,0-119-46-119-116.6c0-64,38.9-124.2,112.8-124.2c74.9,0,99.6,61.6,99.6,112.4c0,10.9-0.9,19.4-1.9,24.7H553z M654.5,570.8
			c0.5-21.3-9-56.4-47.9-56.4c-36,0-51.2,32.7-53.6,56.4H654.5z"/>
		<path fill="#182D62" d="M743.8,657.1c13.3,8.1,38.4,16.6,59.3,16.6c25.6,0,37-10.4,37-25.6c0-15.6-9.5-23.7-37.9-33.7
			c-45-15.6-64-40.3-63.5-67.3c0-40.8,33.7-72.5,87.2-72.5c25.6,0,47.9,6.6,61.2,13.7l-11.4,41.2c-10-5.7-28.4-13.3-48.8-13.3
			c-20.9,0-32.2,10-32.2,24.2c0,14.7,10.9,21.8,40.3,32.2c41.7,15.2,61.2,36.5,61.6,70.6c0,41.7-32.7,72.1-93.9,72.1
			c-28,0-53.1-6.6-70.2-16.1L743.8,657.1z"/>
		<path fill="#182D62" d="M1104.7,703.6c-12.3,5.7-36.5,11.9-65.4,11.9c-72.1,0-119-46-119-117.6c0-69.2,47.4-123.3,128.5-123.3
			c21.3,0,43.1,4.7,56.4,10.9l-10.4,43.6c-9.5-4.3-23.2-9-44.1-9c-44.6,0-71.1,32.7-70.6,74.9c0,47.4,30.8,74.4,70.6,74.4
			c20.4,0,34.6-4.3,46-9L1104.7,703.6z"/>
		<path fill="#182D62" d="M1269.3,710.7l-3.8-25.6h-1.4c-14.2,18-38.4,30.8-68.3,30.8c-46.5,0-72.5-33.7-72.5-68.7
			c0-58.3,51.7-87.7,137-87.2v-3.8c0-15.2-6.2-40.3-46.9-40.3c-22.8,0-46.5,7.1-62.1,17.1l-11.4-37.9c17.1-10.4,46.9-20.4,83.4-20.4
			c74,0,95.3,46.9,95.3,97.2v83.4c0,20.9,0.9,41.2,3.3,55.5H1269.3z M1261.7,597.9c-41.2-0.9-80.6,8.1-80.6,43.1
			c0,22.8,14.7,33.2,33.2,33.2c23.2,0,40.3-15.2,45.5-31.8c1.4-4.3,1.9-9,1.9-12.8V597.9z"/>
		<path fill="#182D62" d="M1368.7,548.6c0-26.6-0.5-48.8-1.9-68.7h50.3l2.4,34.1h1.4c11.4-18,32.2-39.4,71.1-39.4
			c30.3,0,54.1,17.1,64,42.7h0.9c8.1-12.8,17.5-22.3,28.4-28.9c12.8-9,27.5-13.7,46.5-13.7c38.4,0,77.3,26.1,77.3,100v136.1h-56.9
			V583.2c0-38.4-13.3-61.2-41.2-61.2c-19.9,0-34.6,14.2-40.8,30.8c-1.4,5.7-2.8,12.8-2.8,19.4v138.4h-56.9V577
			c0-32.2-12.8-55-39.8-55c-21.8,0-36.5,17.1-41.7,33.2c-2.4,5.7-3.3,12.3-3.3,19v136.6h-56.9V548.6z"/>
	</g>
	<g>
		<path fill="#182D62" d="M305.6,818.3v2.5c0,5.4,1.2,9.5,6.4,9.5c5.2,0,6.7-4.4,6.7-8.5c0-15.4-26.9-6.8-26.9-33.5
			c0-11.4,5.4-21,20.5-21c14.7,0,20,8.6,20,19.5v1.7H318c0-3.5-0.4-6-1.2-7.5c-0.9-1.7-2.4-2.5-4.5-2.5c-3.8,0-5.9,2.5-5.9,7.7
			c0,15,26.9,7.3,26.9,32.6c0,16.3-7.9,22.7-21.4,22.7c-10.8,0-20.6-3.7-20.6-18.6v-4.6H305.6z"/>
		<path fill="#182D62" d="M351.4,815.7v3.3c0,8.4,1.1,12.5,5.2,12.5c3.8,0,4.8-3.1,5.2-9.9h13.2c-0.3,13.5-6.6,19.9-18.4,19.9
			c-17.9,0-19.3-14.4-19.3-30.4c0-15.2,3.9-26.5,19.3-26.5c17.5,0,18.9,12.7,18.9,31.1H351.4z M361.7,806.3c0-7.6-0.9-11.7-4.8-11.7
			c-4.7,0-5.4,4.4-5.4,11.7H361.7z"/>
		<path fill="#182D62" d="M379.8,786h13.7v7.6h0.2c1.8-4.8,5.4-9,11.4-9h1.1c0.4,0,0.8,0.1,1.2,0.2V800c-1.4-0.3-2.5-0.4-3.9-0.4
			c-5.7,0-9.4,2.6-9.4,9.8v30.7h-14.2V786z"/>
		<path fill="#182D62" d="M409.4,786h14.7l5.5,39.9h0.2l5.6-39.9h14.2l-11.8,54.1h-16.8L409.4,786z"/>
		<path fill="#182D62" d="M453.3,767.9h14.2v12.4h-14.2V767.9z M453.3,786h14.2v54.1h-14.2V786z"/>
		<path fill="#182D62" d="M497.4,806.4c0-8-1.6-11.2-5.4-11.2c-4.7,0-5.4,6.8-5.4,17.9c0,12.3,0.7,17.8,5.4,17.8
			c4.2,0,5.1-3.2,5.4-12.8h13.2c-0.1,16.7-5.9,23.4-18.8,23.4c-17.9,0-19.3-14.4-19.3-30.4c0-15.2,3.9-26.5,19.3-26.5
			c15,0,18.8,8.9,18.8,21.8H497.4z"/>
		<path fill="#182D62" d="M515.2,767.9h14.2v12.4h-14.2V767.9z M515.2,786h14.2v54.1h-14.2V786z"/>
		<path fill="#182D62" d="M534.4,813.2c0-16.2,3.2-28.6,19.6-28.6c17.3,0,19.6,12.1,19.6,28.3c0,16.2-3.2,28.6-19.6,28.6
			C536.6,841.5,534.4,829.4,534.4,813.2z M554.1,795.2c-4.2,0-5.4,4.7-5.4,17.8c0,13.2,1.2,17.9,5.4,17.9c4.4,0,5.3-4.5,5.3-17.8
			C559.3,799.7,558.4,795.2,554.1,795.2z"/>
		<path fill="#182D62" d="M626.6,833.5h-0.2c-1.1,3.6-3.9,8-10.3,8c-9.5,0-14.7-7.8-14.7-28c0-16.8,2.2-28.9,13.8-28.9
			c3.9,0,8.2,1.6,10.6,7.3h0.2v-23.2h14.2v71.4h-13.7V833.5z M621.2,796.4c-5.2,0-5.4,6.4-5.4,16.3c0,8.7,0.3,17,5.5,17
			c4.2,0,5.1-5.8,5.1-16.3C626.4,803.8,626,796.4,621.2,796.4z"/>
		<path fill="#182D62" d="M659.3,815.7v3.3c0,8.4,1.1,12.5,5.2,12.5c3.8,0,4.8-3.1,5.2-9.9h13.2c-0.3,13.5-6.6,19.9-18.4,19.9
			c-17.9,0-19.3-14.4-19.3-30.4c0-15.2,3.9-26.5,19.3-26.5c17.5,0,18.9,12.7,18.9,31.1H659.3z M669.6,806.3c0-7.6-0.9-11.7-4.8-11.7
			c-4.7,0-5.4,4.4-5.4,11.7H669.6z"/>
		<path fill="#182D62" d="M724.5,818.3v2.5c0,5.4,1.2,9.5,6.4,9.5c5.2,0,6.7-4.4,6.7-8.5c0-15.4-26.9-6.8-26.9-33.5
			c0-11.4,5.4-21,20.5-21c14.7,0,20,8.6,20,19.5v1.7H737c0-3.5-0.4-6-1.2-7.5c-0.9-1.7-2.4-2.5-4.5-2.5c-3.8,0-5.9,2.5-5.9,7.7
			c0,15,26.9,7.3,26.9,32.6c0,16.3-7.9,22.7-21.4,22.7c-10.8,0-20.6-3.7-20.6-18.6v-4.6H724.5z"/>
		<path fill="#182D62" d="M757.5,802.6c0.1-7.5,1.9-11.8,5.4-14.5s7.3-3.5,13.2-3.5c11.7,0,16.8,4.5,16.8,16v27.8
			c0,4.1,0,9.3,1.7,11.7h-13.7c-0.6-1.9-0.7-4.1-0.8-6.2h-0.2c-2,4.8-6.3,7.6-11.1,7.6c-8.1,0-12.6-4.8-12.6-16.5
			c0-6.4,2.3-11.5,5.8-13.8c3.5-2.3,8.8-3.2,12.7-4.4c4.3-1.4,5.1-2.1,5.1-6.2c0-3.3-1.3-5.4-4.5-5.4c-3.9,0-5.1,2.7-5.2,7.4H757.5z
			 M774,830.3c3.1,0,5.7-1.9,5.7-7.4c0-4.5,0.1-7.2,0.1-9.5c-4.5,2.7-6.4,2.8-7.7,4c-1.5,1.3-2.2,2.9-2.2,6
			C769.8,827.7,771.2,830.3,774,830.3z"/>
		<path fill="#182D62" d="M799.7,768.7h14.2v71.4h-14.2V768.7z"/>
		<path fill="#182D62" d="M857.8,840.1h-13.7v-6.4h-0.2c-2,4.8-6.1,7.8-11.4,7.8c-8.1,0-12.4-4.6-12.4-15V786h14.2v36.9
			c0,3.9,1.4,6.2,4.1,6.2c2.7,0,5.1-2.4,5.1-7.7V786h14.2V840.1z"/>
		<path fill="#182D62" d="M888,833.5h-0.2c-1.1,3.6-3.9,8-10.3,8c-9.5,0-14.7-7.8-14.7-28c0-16.8,2.2-28.9,13.8-28.9
			c3.9,0,8.2,1.6,10.6,7.3h0.2v-23.2h14.2v71.4H888V833.5z M882.6,796.4c-5.2,0-5.4,6.4-5.4,16.3c0,8.7,0.3,17,5.5,17
			c4.2,0,5.1-5.8,5.1-16.3C887.8,803.8,887.4,796.4,882.6,796.4z"/>
		<path fill="#182D62" d="M956.4,833.5h-0.2c-1.1,3.6-3.9,8-10.3,8c-9.5,0-14.7-7.8-14.7-28c0-16.8,2.2-28.9,13.8-28.9
			c3.9,0,8.2,1.6,10.6,7.3h0.2v-23.2h14.2v71.4h-13.7V833.5z M950.9,796.4c-5.2,0-5.4,6.4-5.4,16.3c0,8.7,0.3,17,5.5,17
			c4.2,0,5.1-5.8,5.1-16.3C956.1,803.8,955.8,796.4,950.9,796.4z"/>
		<path fill="#182D62" d="M989.1,815.7v3.3c0,8.4,1.1,12.5,5.2,12.5c3.8,0,4.8-3.1,5.2-9.9h13.2c-0.3,13.5-6.6,19.9-18.4,19.9
			c-17.9,0-19.3-14.4-19.3-30.4c0-15.2,3.9-26.5,19.3-26.5c17.5,0,18.9,12.7,18.9,31.1H989.1z M999.4,806.3c0-7.6-0.9-11.7-4.8-11.7
			c-4.7,0-5.4,4.4-5.4,11.7H999.4z"/>
		<path fill="#182D62" d="M1068.3,793.5c0-10.4-1.1-15-6-15c-5.9,0-6.4,6.4-6.4,25.1c0,21.2,0.6,26.7,6.8,26.7
			c5.4,0,6.1-7.1,6.1-18.2h14.2v2.5c0,15.4-3.8,26.9-22,26.9c-18.9,0-20.4-16.1-20.4-37.6c0-18.3,1-36.6,21.8-36.6
			c13,0,20.1,6.4,20.1,23.2v3H1068.3z"/>
		<path fill="#182D62" d="M1087.7,802.6c0.1-7.5,1.9-11.8,5.4-14.5s7.3-3.5,13.2-3.5c11.7,0,16.8,4.5,16.8,16v27.8
			c0,4.1,0,9.3,1.7,11.7h-13.7c-0.6-1.9-0.7-4.1-0.8-6.2h-0.2c-2,4.8-6.3,7.6-11.1,7.6c-8.1,0-12.6-4.8-12.6-16.5
			c0-6.4,2.3-11.5,5.8-13.8c3.5-2.3,8.8-3.2,12.7-4.4c4.3-1.4,5.1-2.1,5.1-6.2c0-3.3-1.3-5.4-4.5-5.4c-3.9,0-5.1,2.7-5.2,7.4H1087.7
			z M1104.1,830.3c3.1,0,5.7-1.9,5.7-7.4c0-4.5,0.1-7.2,0.1-9.5c-4.5,2.7-6.4,2.8-7.7,4c-1.5,1.3-2.2,2.9-2.2,6
			C1100,827.7,1101.4,830.3,1104.1,830.3z"/>
		<path fill="#182D62" d="M1140.5,822.9c0.1,2.4,0.3,4.5,1,6.1c0.8,1.5,2,2.5,4.4,2.5c3.4,0,5.1-2.4,5.1-5.5c0-2.5-1-4.9-5.4-6.6
			c-11.7-4.5-17.3-7-17.3-18.5c0-10.8,6.6-16.3,18.1-16.3c13.2,0,17.2,7.5,17.2,15.2v1.8h-12.6v-1c0-4.7-1.6-6-4.7-6
			c-3.8,0-4.8,2.1-4.8,5c0,9.5,22.7,3.2,22.7,24.2c0,10.9-6.3,17.7-18.2,17.7c-12.7,0-18.1-5.4-18.1-16.2v-2.4H1140.5z"/>
		<path fill="#182D62" d="M1171.9,797.2h-5.9V786h5.9v-15.9h14.2V786h6.6v11.2h-6.6v27.3c0,3.9,1.1,5,4.6,5c0.6,0,1.4-0.1,2-0.2
			v10.8c-2.7,0.4-5.4,0.6-8.2,0.6c-9.9,0-12.6-2-12.6-14.6V797.2z"/>
		<path fill="#182D62" d="M1196.9,767.9h14.2v12.4h-14.2V767.9z M1196.9,786h14.2v54.1h-14.2V786z"/>
		<path fill="#182D62" d="M1217.5,768.7h14.2v71.4h-14.2V768.7z"/>
		<path fill="#182D62" d="M1238.1,768.7h14.2v71.4h-14.2V768.7z"/>
		<path fill="#182D62" d="M1258.4,802.6c0.1-7.5,1.9-11.8,5.4-14.5s7.3-3.5,13.2-3.5c11.7,0,16.8,4.5,16.8,16v27.8
			c0,4.1,0,9.3,1.7,11.7h-13.7c-0.6-1.9-0.7-4.1-0.8-6.2h-0.2c-2,4.8-6.3,7.6-11.1,7.6c-8.1,0-12.6-4.8-12.6-16.5
			c0-6.4,2.3-11.5,5.8-13.8c3.5-2.3,8.8-3.2,12.7-4.4c4.3-1.4,5.1-2.1,5.1-6.2c0-3.3-1.3-5.4-4.5-5.4c-3.9,0-5.1,2.7-5.2,7.4H1258.4
			z M1274.9,830.3c3.1,0,5.7-1.9,5.7-7.4c0-4.5,0.1-7.2,0.1-9.5c-4.5,2.7-6.4,2.8-7.7,4c-1.5,1.3-2.2,2.9-2.2,6
			C1270.8,827.7,1272.2,830.3,1274.9,830.3z"/>
		<path fill="#182D62" d="M1299.8,804.4h26.5V818h-26.5V804.4z"/>
		<path fill="#182D62" d="M1332.9,768.7h14.7v57.8h21.3v13.6h-36.1V768.7z"/>
		<path fill="#182D62" d="M1372.9,802.6c0.1-7.5,1.9-11.8,5.4-14.5s7.3-3.5,13.2-3.5c11.7,0,16.8,4.5,16.8,16v27.8
			c0,4.1,0,9.3,1.7,11.7h-13.7c-0.6-1.9-0.7-4.1-0.8-6.2h-0.2c-2,4.8-6.3,7.6-11.1,7.6c-8.1,0-12.6-4.8-12.6-16.5
			c0-6.4,2.3-11.5,5.8-13.8c3.5-2.3,8.8-3.2,12.7-4.4c4.3-1.4,5.1-2.1,5.1-6.2c0-3.3-1.3-5.4-4.5-5.4c-3.9,0-5.1,2.7-5.2,7.4H1372.9
			z M1389.4,830.3c3.1,0,5.7-1.9,5.7-7.4c0-4.5,0.1-7.2,0.1-9.5c-4.5,2.7-6.4,2.8-7.7,4c-1.5,1.3-2.2,2.9-2.2,6
			C1385.3,827.7,1386.7,830.3,1389.4,830.3z"/>
		<path fill="#182D62" d="M1440.9,768.7h21.6l7.7,46.9h0.2l7.5-46.9h21.3v71.4h-13.7v-55.6h-0.2l-9.6,55.6h-11.4l-10.1-55.6h-0.2
			v55.6h-13.2V768.7z"/>
		<path fill="#182D62" d="M1506,802.6c0.1-7.5,1.9-11.8,5.4-14.5s7.3-3.5,13.2-3.5c11.7,0,16.8,4.5,16.8,16v27.8
			c0,4.1,0,9.3,1.7,11.7h-13.7c-0.6-1.9-0.7-4.1-0.8-6.2h-0.2c-2,4.8-6.3,7.6-11.1,7.6c-8.1,0-12.6-4.8-12.6-16.5
			c0-6.4,2.3-11.5,5.8-13.8c3.5-2.3,8.8-3.2,12.7-4.4c4.3-1.4,5.1-2.1,5.1-6.2c0-3.3-1.3-5.4-4.5-5.4c-3.9,0-5.1,2.7-5.2,7.4H1506z
			 M1522.5,830.3c3.1,0,5.7-1.9,5.7-7.4c0-4.5,0.1-7.2,0.1-9.5c-4.5,2.7-6.4,2.8-7.7,4c-1.5,1.3-2.2,2.9-2.2,6
			C1518.4,827.7,1519.8,830.3,1522.5,830.3z"/>
		<path fill="#182D62" d="M1548,786h13.7v6.4h0.2c2-4.8,6.1-7.8,11.4-7.8c8.1,0,12.4,4.6,12.4,15v40.5h-14.2v-36.9
			c0-3.9-1.4-6.2-4.1-6.2c-2.7,0-5.1,2.4-5.1,7.7v35.4H1548V786z"/>
		<path fill="#182D62" d="M1615.3,806.4c0-8-1.6-11.2-5.4-11.2c-4.7,0-5.4,6.8-5.4,17.9c0,12.3,0.7,17.8,5.4,17.8
			c4.2,0,5.1-3.2,5.4-12.8h13.2c-0.1,16.7-5.9,23.4-18.8,23.4c-17.9,0-19.3-14.4-19.3-30.4c0-15.2,3.9-26.5,19.3-26.5
			c15,0,18.8,8.9,18.8,21.8H1615.3z"/>
		<path fill="#182D62" d="M1632.9,768.7h14.2v23.2h0.2c2.4-5.3,6-7.3,10.9-7.3c8.1,0,12.4,4.6,12.4,15v40.5h-14.2v-36.9
			c0-3.9-1.4-6.2-4.1-6.2c-2.7,0-5.1,2.4-5.1,7.7v35.4h-14.2V768.7z"/>
		<path fill="#182D62" d="M1676.2,802.6c0.1-7.5,1.9-11.8,5.4-14.5s7.3-3.5,13.2-3.5c11.7,0,16.8,4.5,16.8,16v27.8
			c0,4.1,0,9.3,1.7,11.7h-13.7c-0.6-1.9-0.7-4.1-0.8-6.2h-0.2c-2,4.8-6.3,7.6-11.1,7.6c-8.1,0-12.6-4.8-12.6-16.5
			c0-6.4,2.3-11.5,5.8-13.8c3.5-2.3,8.8-3.2,12.7-4.4c4.3-1.4,5.1-2.1,5.1-6.2c0-3.3-1.3-5.4-4.5-5.4c-3.9,0-5.1,2.7-5.2,7.4H1676.2
			z M1692.7,830.3c3.1,0,5.7-1.9,5.7-7.4c0-4.5,0.1-7.2,0.1-9.5c-4.5,2.7-6.4,2.8-7.7,4c-1.5,1.3-2.2,2.9-2.2,6
			C1688.6,827.7,1690,830.3,1692.7,830.3z"/>
	</g>
</g>
</svg>
